<?xml version="1.0" standalone="no"?>
<svg viewBox="-350 -150 1500 1500" xmlns="http://www.w3.org/2000/svg" style="width: 195px; height: 195px; justify-content: center; align-self: center; transform: scale(1, 1);"><rect x="-350" y="-150" width="100%" height="100%" fill="#FFD55A" rx="30"></rect><g transform="rotate(0 410.5864505767822 612.6884651184082)"><g transform="translate(0 459)"><path d="M748.281 585.022C744.25 562.258 740.555 539.434 737.197 516.56C735.603 505.7 734.049 494.83 732.65 483.942C731.671 476.314 730.18 467.591 735.37 461.942C742.673 453.99 749.307 447.184 750.201 435.793C751.042 425.076 747.418 413.393 745.152 402.99C740.4 381.174 734.484 359.628 727.948 338.286C721.306 316.603 714.024 295.124 706.637 273.686C699.731 253.642 693.092 233.417 684.097 214.186C667.026 177.691 638.146 150.664 602.454 132.618C593.578 128.13 575.472 112.108 566.198 108.521C557.672 105.223 557.703 114.854 549.311 111.226C542.603 108.326 536.357 104.459 532.601 97.9817C528.523 90.9492 518.297 81.1132 516.74 72.9271C513.441 55.5756 517.014 40.8073 504.63 27.7476C493.637 16.1509 478.859 8.20616 463.569 3.94138C429.933 -5.44032 385.075 1.11856 364.781 32.3739C355.088 47.3001 351.701 65.3415 338.622 77.523C327.202 88.1594 329.757 95.4313 314.965 100.913C314.127 101.224 291.42 96.3534 290.582 96.6648C274.4 93.2021 258.934 102.895 244.087 108.521C221.954 116.905 200.883 127.819 181.085 140.79C141.166 166.945 106.976 200.908 78.7895 239.341C50.3695 278.091 28.3185 321.523 12.6175 366.917C8.8045 377.943 5.3795 389.103 2.3585 400.372C0.667503 406.679 -1.1395 413.221 0.919503 419.677C2.6035 424.96 6.3495 428.893 10.7485 432.062C16.7115 436.359 28.6725 439.152 28.4395 447.794C28.2615 454.364 26.0325 461.279 24.9445 467.772C23.6495 475.504 22.5855 483.282 21.5215 491.048C16.6815 526.398 12.9145 561.947 11.2485 597.597C9.6085 632.699 8.2475 668.518 10.6825 703.61C10.8435 705.924 11.5335 708.048 12.6465 709.843C11.6075 710.241 11.5275 712.178 12.8205 712.452C13.7265 712.644 14.6305 712.835 15.5365 713.028C17.4185 714.452 19.7655 715.325 22.4665 715.41C24.2975 715.468 26.1275 715.55 27.9565 715.644C47.2575 719.679 66.5555 723.49 86.1085 726.376C109.876 729.883 133.714 732.743 157.626 735.069C206.762 739.845 255.51 738.261 304.71 735.686C353.833 733.115 402.928 732.514 452.104 733.793C501.322 735.074 550.521 737.214 599.75 738.091C654.75 739.068 709.664 737.566 764.504 733.194C772.023 732.595 776.675 726.613 775.193 719.145C766.307 674.402 756.238 629.958 748.281 585.022Z" transform="translate(25.9997 -31.99965)" fill="#FFFFFF" stroke="none"></path><path d="M387.499 11.4142C390.401 2.82024 378.393 -3.89576 372.349 2.59424C368.625 6.5925 367.134 11.7389 365.35 16.7859L364.976 17.8282C363.504 21.8572 361.659 25.7562 359.605 29.5212C355.317 37.3812 349.885 44.6692 343.661 51.1022C330.891 64.2992 314.162 73.6282 297.126 80.2062C296.582 80.4162 296.353 80.8962 296.408 81.3372C295.593 80.2272 294.779 79.1172 293.969 78.0072C293.529 77.4062 292.433 77.7312 292.683 78.5492C307.284 126.366 348.611 165.008 395.354 181.324C443.676 198.192 499.563 190.729 537.318 154.758C556.111 136.853 569.596 112.78 573.128 86.9302C573.281 85.8062 573.244 84.7832 573.07 83.8542C589.682 97.8742 607.105 110.89 623.392 125.306C642.416 142.146 660.893 160.15 676.08 180.597C691.487 201.344 703.101 224.254 710.862 248.896C718.244 272.335 722.639 296.55 726.714 320.754L728.773 333.051C733.39 360.393 738.797 387.342 746.69 413.895C737.862 416.725 729.065 419.643 720.268 422.581L703.534 428.171C699.095 429.654 694.083 432.097 689.427 433.074C686.213 432.549 683.001 433.893 680.87 436.224C679.693 417.484 678.804 398.731 678.163 379.989C677.675 365.731 677.406 351.456 676.792 337.203C676.149 322.266 674.837 307.385 674 292.487C673.972 291.992 673.312 292.019 673.25 292.487C671.482 305.775 669.502 318.924 668.55 332.341C667.61 345.596 667.176 358.922 667.064 372.21C666.845 398.134 667.226 424.054 668.459 449.951C670.957 502.44 675.903 554.844 683.698 606.813C685.91 621.565 688.387 636.273 691.074 650.945C692.359 657.961 693.69 664.967 695.067 671.965C695.813 675.756 696.399 679.664 697.363 683.407C698.424 687.528 700.305 689.488 703.911 691.751C706.634 693.458 709.993 692.188 711.672 689.715C713.717 686.704 714.725 684.452 714.153 680.792C713.653 677.596 712.89 674.423 712.249 671.253C710.963 664.899 709.715 658.539 708.506 652.17C706.087 639.434 703.86 626.664 701.693 613.882C697.317 588.069 693.612 562.138 690.27 536.172C686.597 507.635 683.841 478.952 681.805 450.219C683.505 451.871 685.707 452.78 688.595 453.134C693.024 453.676 698.063 451.574 702.619 449.672C704.131 449.041 705.591 448.432 706.957 447.949L729.068 440.133L733.599 438.524C733.796 452.029 735.189 465.691 736.329 479.016L737.23 489.544C738.431 503.58 739.62 517.614 740.743 531.659C743.273 563.319 748.278 594.839 753.548 626.168L755.084 635.258C756.728 644.966 758.412 654.666 760.136 664.359C760.998 669.204 761.911 674.035 762.874 678.86C763.376 681.377 763.653 684.129 764.421 686.572C765.634 690.43 768.314 692.026 771.734 693.626L772.364 693.917C774.279 694.795 776.538 694.785 778.101 693.176C780 691.222 782.127 689.297 782.876 686.572C783.482 684.366 783.039 682.092 782.607 679.878C782.571 679.693 782.535 679.509 782.5 679.325L782.361 678.574C781.562 674.048 780.803 669.514 779.966 664.994C778.412 656.612 776.814 648.238 775.283 639.852C772.103 622.438 769.231 604.968 766.048 587.556C759.822 553.502 752.561 519.621 746.635 485.522C743.847 469.48 741.578 452.964 737.857 437.001C745.435 434.291 753.001 431.547 760.539 428.713C766.576 426.444 768.474 421.032 766.012 415.261C756.494 392.953 751.784 368.499 747.568 344.518L744.786 328.601C740.269 302.624 735.99 276.525 728.532 251.196C713.337 199.588 681.976 155.763 640.12 122.239C619.88 106.029 598.373 91.4176 575.021 80.2078L574.877 80.1399C573.354 79.4342 569.422 77.9608 566.075 77.8262C562.616 77.6872 559.081 79.9082 558.488 84.9492L558.476 85.0312L558.046 84.5732C555.701 82.1876 552.534 80.6843 549.918 78.6052C547.233 76.4712 544.746 74.0392 542.452 71.4942C538.165 66.7372 534.643 61.1932 531.705 55.5132C525.701 43.9051 523.856 31.5877 522.375 18.8544L522.083 16.3022C521.897 14.6672 519.711 13.7282 518.763 15.4032C511.081 28.9902 512.885 47.0492 518.511 61.0752C521.585 68.7392 525.779 75.5192 531.149 81.7982C536.113 87.6022 543.733 95.6972 551.43 97.3682C553.229 97.7592 554.868 97.5482 556.247 96.9302C546.627 134.346 513.917 163.705 476.789 173.126C429.599 185.101 380.729 168.267 344.836 137.056C327.219 121.738 312.603 103.256 298.749 84.5149L296.984 82.1212C297.105 82.1782 297.242 82.2182 297.4 82.2322C317.878 83.9632 336.893 75.8522 352.839 63.3622C369.803 50.0762 380.673 31.6332 387.499 11.4142ZM294.039 69.283C290.11 68.8407 286.143 68.3941 282.235 68.5639C277.201 68.7829 272.184 69.1039 267.174 69.6639C257.886 70.7039 248.234 73.2299 239.363 76.1339C220.384 82.3479 202.438 91.1369 185.598 101.841C151.152 123.735 121.762 152.927 96.8833 185.117C69.2443 220.878 46.6173 260.429 29.0873 302.061C20.3323 322.856 12.8513 344.171 6.80127 365.91C5.30927 371.271 3.89527 376.655 2.58227 382.063L2.46597 382.535C2.28315 383.268 2.08773 384.013 1.8899 384.768C0.638578 389.539 -0.708997 394.677 0.429273 399.431C1.61127 404.372 5.27327 407.72 9.51927 410.161C14.8713 413.238 20.5643 415.854 26.0703 418.642C29.1743 420.214 32.2903 421.779 35.4153 423.333C27.3894 448.456 23.4478 475.129 19.8575 501.21L17.9349 515.239C13.0099 551.581 9.2414 588.071 7.35527 624.707C6.81627 635.186 6.37327 645.67 6.02627 656.157C5.85327 661.4 5.70427 666.644 5.58027 671.889C5.56362 672.584 5.53772 673.28 5.51188 673.975C5.30647 679.496 5.10421 684.932 9.57027 689.045C13.3263 692.503 18.4523 692.328 22.2473 689.045C25.9836 685.812 26.4351 681.699 26.5475 677.258L26.6849 670.25C26.7509 667.191 26.8256 664.132 26.9083 661.073C27.1553 651.896 27.4773 642.722 27.8723 633.55C28.6763 614.888 29.5993 596.228 30.8673 577.591C33.3783 540.691 36.7333 503.919 40.5383 467.133C41.9013 453.951 43.3093 440.738 43.8923 427.501C84.1703 447.059 126.391 463.798 171.584 465.255C170.254 479.823 168.962 494.392 167.766 508.974C164.391 550.087 160.742 591.17 157.57 632.301C156.702 643.571 155.855 654.841 155.066 666.117C154.819 669.642 154.514 673.182 154.208 676.728C153.484 685.123 152.756 693.557 152.794 701.921C152.815 706.432 156.252 710.367 160.72 710.899C164.758 711.379 170.09 708.903 170.749 704.351C173.706 683.928 174.125 662.84 175.42 642.247C176.713 621.695 178.145 601.146 179.253 580.583C181.466 539.477 183.956 498.378 185.831 457.256C186.89 434.038 187.86 410.747 184.825 387.636C184.703 386.704 183.368 386.35 183.075 387.399C177.627 406.921 175.131 427.169 173.229 447.31L172.895 450.953C130.234 449.862 89.7267 434.102 51.8161 415.517L49.4983 414.376C48.0121 413.642 33.1923 406.104 24.2954 401.519L19.7343 399.154C18.3833 398.446 15.4753 397.605 14.7273 396.244C14.067 395.042 14.8618 392.431 15.411 390.627C15.5655 390.119 15.7005 389.675 15.7783 389.345C16.9843 384.212 18.2563 379.095 19.6083 373.998C25.1683 353.049 32.0323 332.447 40.1333 312.345C69.9633 238.324 117.233 166.83 182.545 119.609C199.506 107.346 217.935 96.6719 237.339 88.7639C247.075 84.7959 256.837 81.7269 266.894 78.7519L270.713 77.6218C279.631 74.9862 288.613 72.3909 297.693 70.4939C298.191 70.3899 298.023 69.7079 297.581 69.6649C296.406 69.5493 295.224 69.4164 294.039 69.283Z" transform="translate(19.00033 -4.999743)" fill="#000000" fill-rule="evenodd" stroke="none"></path></g><g transform="translate(225 0)"><g><g><path d="M345.142 90.1373C346.232 80.0123 334.379 53.0009 334.665 58.4799C315.663 29.1809 278.58 17.6589 246.585 7.98693C178.664 -14.4351 125.626 12.6439 77.9044 60.6369C49.7304 86.9539 22.9224 116.351 8.77943 152.782C-19.0436 222.28 22.6614 301.526 86.0844 334.726C91.2024 337.496 96.7794 340.126 101.653 343.472C127.871 358.619 158.658 363.859 187.873 370.452C242.529 382.945 311.172 376.991 343.382 324.955C365.229 288.025 359.425 243.256 357.715 202.272C355.146 166.363 350.637 125.783 345.142 90.1373Z" transform="translate(48.99997 119.0004)" fill="#FFFFFF" stroke="none"></path><path d="M279.593 0.314017C231.741 -2.49198 179.404 13.552 143.994 46.654C138.935 51.382 134.281 56.661 129.975 62.293C124.341 67.671 118.995 73.345 114.001 79.298C79.4814 120.439 60.4014 172.179 53.1514 224.958C49.4214 252.128 48.4714 279.579 50.1714 306.949C50.7651 316.485 51.847 326.007 52.9292 335.533C54.8544 352.479 56.7808 369.435 55.9614 386.489C55.3714 398.589 53.1914 411.009 47.2214 421.699C41.5964 431.777 32.7458 438.7 23.982 445.853L22.2314 447.288C13.3714 454.589 3.94137 463.069 0.94137 474.628C-2.31863 487.169 3.11137 499.809 13.7814 506.849C24.4314 513.878 38.2714 514.458 49.9014 509.759C56.6644 507.023 62.6164 503.035 68.1324 498.31C73.9294 502.148 81.3714 504.086 88.4824 503.662C94.8374 503.283 102.145 501.619 108.882 498.687C114.561 502.892 122.173 504.356 129.127 504.128C137.722 503.847 147.326 501.439 155.076 496.652C158.604 497.621 162.356 498.047 166.171 497.859C184.451 496.949 196.801 482.819 201.031 465.759C205.621 447.208 202.521 426.798 197.561 408.628C192.551 390.259 184.401 372.679 173.751 356.899C171.871 354.119 169.931 351.399 167.901 348.729C165.701 344.089 163.29 339.538 160.571 335.248C158.58 332.119 156.381 328.829 153.85 325.849C154.621 324.919 155.341 323.878 156.1 322.788C157.641 320.579 156.061 317.288 153.611 316.659C151.391 316.099 149.491 315.038 147.181 314.769C144.931 314.498 142.58 314.619 140.33 314.458C136.401 314.189 132.611 313.069 129.161 311.169C128.901 311.029 128.641 310.878 128.391 310.718C128.387 310.723 128.385 310.725 128.382 310.725C128.379 310.725 128.377 310.72 128.371 310.708C128.1 310.559 127.821 310.388 127.561 310.229C120.211 305.569 115.79 298.138 114.151 289.538C112.361 280.128 113.951 269.649 117.911 260.958C120.661 254.929 126.191 247.038 132.821 245.019C134.475 245.595 136.296 246.599 138.179 247.636C143.265 250.44 148.799 253.49 152.681 249.009C154.33 247.109 154.661 244.138 152.681 242.269C151.711 241.359 150.471 240.538 149.111 239.809C149.821 238.798 150.521 237.788 151.211 236.779C152.271 235.449 153.271 234.079 154.161 232.659C154.58 231.989 155.001 231.319 155.441 230.649L155.491 230.559L158.694 225.867C166.152 214.908 173.5 203.874 180.771 192.788C186.29 188.859 191.731 184.809 197.1 180.699C223.481 160.538 248.1 137.929 269.571 112.569C276.451 104.439 283.031 96.038 289.241 87.378C311.771 92.439 334.83 95.679 357.031 101.979C371.531 106.099 385.911 111.119 399.04 118.628C405.391 122.259 411.401 126.429 416.661 131.529C419.131 133.929 421.441 136.489 423.481 139.259C425.901 142.548 427.631 143.998 431.361 145.089C431.671 145.809 432.121 146.519 432.701 147.189C433.441 148.038 434.261 148.679 435.141 149.138C434.951 151.309 434.691 153.479 434.641 155.699C434.581 158.339 434.583 160.988 434.585 163.634C434.586 164.947 434.587 166.259 434.58 167.569C434.572 169.252 434.559 170.936 434.547 172.62C434.5 178.853 434.454 185.092 434.611 191.319C434.883 202.155 435.537 213.001 436.253 223.831L437.121 236.819C439.04 265.729 442.441 294.638 443.421 323.589C444.231 347.829 442.031 374.859 425.421 394.019C417.881 402.729 408.531 409.399 398.241 414.498C387.521 419.798 375.33 424.079 363.631 426.429C347.958 429.589 331.455 429.057 315.523 428.185L313.251 428.059C305.35 427.619 297.251 427.489 289.431 426.279C283.451 425.359 277.781 422.798 272.011 421.169C270.491 420.739 268.83 421.949 268.871 423.559C269.156 436.147 284.134 437.868 294.29 438.599L297.99 438.85C313.684 439.885 329.447 440.688 345.181 440.239C346.361 440.208 347.551 440.159 348.731 440.109C343.231 450.138 344.1 462.548 349.691 472.659C351.231 475.439 353.141 477.919 355.35 480.089C362.131 486.788 371.651 490.569 381.211 491.029C381.461 491.138 381.721 491.248 381.981 491.349L382.561 491.583C390.871 494.918 399.472 497.454 408.531 496.378C414.54 495.669 419.961 493.042 424.164 489.238C429.623 490.951 435.522 490.748 441.033 489.144C447.354 492.078 454.15 493.591 460.751 489.748C467.441 485.859 471.401 477.779 471.151 470.149C470.868 461.706 465.091 455.544 458.017 451.767C456.926 448.075 455.208 444.456 453.432 440.889L451.792 437.61L449.691 432.609C448.892 430.721 448.084 428.837 447.278 426.954C445.555 422.163 443.936 417.33 442.693 412.394C441.795 408.827 441.393 405.597 440.2 402.728C452.719 387.163 459.169 368.03 460.54 347.059C461.451 333.079 460.401 319.038 459.061 305.119L458.283 297.033C456.978 283.556 455.635 270.076 454.201 256.609C452.201 237.779 449.931 218.979 447.421 200.218C446.221 191.208 444.721 182.279 443.091 173.339C442.818 171.839 442.54 170.339 442.26 168.839L440.571 159.839C439.951 156.538 438.981 153.259 438.171 149.979C441.901 150.279 445.841 148.048 447.721 144.509C450.176 139.89 448.828 133.639 447.685 128.344C447.507 127.52 447.334 126.719 447.182 125.951L446.824 124.08C444.601 112.713 440.676 101.68 435.701 91.218C425.281 69.298 409.001 50.819 387.941 38.619C383.736 36.181 379.395 33.939 374.955 31.867C368.373 27.058 361.235 22.974 353.91 19.485C330.488 8.32802 305.51 1.83402 279.593 0.314017ZM156.411 275.759C151.631 269.659 142.011 263.878 133.991 266.309C128.511 267.958 123.321 273.479 123.711 279.399C123.771 280.288 125.191 280.619 125.371 279.628C126.421 273.779 132.381 273.179 136.831 275.579C140.931 277.788 143.271 282.569 146.141 286.019C148.671 289.048 153.791 288.579 156.411 286.019C159.491 283.009 158.811 278.819 156.411 275.759ZM603.171 348.009C603.361 348.019 603.541 348.029 603.711 348.099C603.825 348.147 603.921 348.224 604.01 348.308L604.851 349.149C605.151 349.449 605.131 349.909 604.851 350.209C604.605 350.482 604.162 350.49 603.872 350.279L603.791 350.209L602.92 349.337C602.824 349.234 602.743 349.122 602.701 348.979C602.661 348.839 602.661 348.679 602.651 348.529C602.641 348.259 602.901 348.009 603.171 348.009Z" transform="translate(-41.99967 59.99968)" fill="#000000" fill-rule="evenodd" stroke="none"></path></g></g><g transform="translate(159 186)"><g><path d="M180.345 18.044C172.985 7.315 160.323 -0.00399509 147.164 3.27348e-06C142.229 0.00100491 134.692 0.532005 130.871 4.05501C128.17 6.545 127.769 9.74901 131.039 11.545C131.764 11.943 132.549 11.143 132.245 10.479C132.877 10.103 133.563 9.856 134.31 9.75801C135.705 9.51641 137.493 9.76313 139.035 10.0215L140.135 10.21C143.539 10.789 147.019 11.93 150.166 13.337C156.616 16.219 162.057 20.646 166.278 26.267L166.436 26.4716C169.09 29.8475 173.396 31.5439 177.423 29.188C181.013 27.089 182.846 21.689 180.345 18.044ZM33.7267 5.1487L35.2249 4.7115C36.3256 4.39269 37.4295 4.04111 38.5332 3.68958C45.2363 1.55471 51.9341 -0.578458 57.8689 4.6385C60.5829 7.0245 61.1419 11.9825 59.1999 14.9585C55.5157 20.6055 50.3495 20.8314 44.5982 21.0828C43.4432 21.1333 42.2647 21.1848 41.0699 21.2815C35.6299 21.7215 30.2709 23.3195 25.1929 25.3165C21.0429 26.9495 17.1939 29.2485 13.5599 31.8125C9.98991 34.3335 7.55091 38.2745 3.88891 40.5435C2.54691 41.3755 0.996911 40.5195 0.514911 39.1705C-1.19309 34.3855 1.69291 28.4245 4.13491 24.3475C7.11591 19.3735 11.6439 15.3055 16.5129 12.2275C21.8446 8.85643 27.7404 6.91001 33.7267 5.1487ZM148.26 42.0111C150.546 39.7239 153.758 40.0619 156.144 41.862L156.461 42.1101C158.71 43.1091 160.571 45.2921 161.793 47.3151C163.062 49.4161 163.905 51.5561 163.938 53.8691C169.472 53.8871 174.773 55.5471 178.836 60.0151C180.148 61.4571 181.044 63.6811 180.322 65.6361L179.892 66.7991C178.527 70.4915 172.394 72.617 170.309 68.2748L170.213 68.0631C167.998 62.9071 159.495 63.4481 154.976 63.9751C151.826 64.3441 148.715 65.1271 145.673 66.0041C144.601 66.3131 143.539 66.6485 142.478 66.991L141.417 67.3351C140.851 67.5181 137.903 69.1191 139.737 68.7401C140.23 68.6381 140.601 69.3561 140.098 69.5971C137.912 70.6421 135.58 68.5611 135.726 66.2131C135.979 62.1373 142.451 59.9025 145.565 58.4971L145.752 58.4121C146.946 57.8601 148.197 57.3311 149.488 56.8401C148.762 55.7601 148.162 54.5601 147.663 53.2721C147.191 52.0561 146.876 50.8741 146.703 49.5811C146.533 48.9491 146.533 48.3171 146.703 47.6841L146.729 47.5031C146.641 47.0851 146.599 46.6531 146.605 46.2181L146.587 46.0491L146.605 46.0491C146.666 44.5261 147.271 43.0001 148.26 42.0111ZM46.6698 41.9793C45.1228 41.3213 43.3608 41.1353 41.6148 41.6163C38.9898 42.3403 36.9398 44.5483 36.1548 47.0993L36.1418 47.0903L36.1188 47.2413C35.9768 47.7363 35.8788 48.2413 35.8358 48.7523L35.392 49.8363C35.1792 50.3632 34.9774 50.8917 34.8148 51.4353C33.7648 54.0583 34.2398 57.2763 35.7758 59.7193C25.2328 63.1083 14.5308 68.6733 6.17181 75.5403C4.40281 76.9943 6.43281 79.4803 8.22081 79.0483L8.21881 79.0553L9.63926 78.6946C20.0732 75.9715 29.9119 71.6317 40.6188 69.6743C45.8048 68.7253 51.3028 68.3903 56.5568 68.9753C58.7382 69.2179 60.8035 69.8406 62.8449 70.4561C66.0049 71.4089 69.1077 72.3445 72.4958 71.8263C76.1188 71.2723 77.9698 66.0943 75.9978 63.2183C72.4865 58.1004 65.9839 57.0907 60.0609 56.5402L59.0018 56.4453C57.9058 56.3503 56.8078 56.3133 55.7098 56.3023C55.8358 54.8923 55.7448 53.4373 55.3708 52.1563C55.0668 51.1143 54.2218 50.0233 54.0308 48.9853L54.4448 50.0393L54.2905 49.6242C54.1921 49.3461 54.1028 49.065 54.0228 48.7803C53.0088 45.4923 50.1238 42.6123 46.6698 41.9793ZM130.428 106.934C135.005 95.5229 120.515 88.1299 111.732 85.4159C109.366 84.5139 109.503 80.1089 113.87 80.0099C153.531 79.1059 153.748 140.665 94.7886 117.34C87.6536 114.223 91.4956 103.882 98.8746 106.326C99.2608 106.485 99.6663 106.654 100.089 106.83C108.658 110.396 124.337 116.921 130.428 106.934ZM123.534 146.337C126.965 140.283 137.203 141.267 138.768 148.328C141.943 162.642 124.874 175.86 111.91 176.19C99.0265 176.517 84.5715 165.552 86.4365 151.702C86.8975 148.276 91.4735 148.692 93.0335 150.84L93.6392 151.664C97.8762 157.356 103.467 163.248 111.331 161.86C114.59 161.286 117.55 159.25 119.52 156.629C121.896 153.466 121.635 149.689 123.534 146.337Z" transform="translate(53.99999 59.00019)" fill="#000000" fill-rule="evenodd" stroke="none"></path></g></g><g transform="translate(123 338)"></g><g transform="translate(47 241)"></g></g></g></svg>